<?xml version="1.0" standalone="no"?>
<!DOCTYPE svg PUBLIC "-//W3C//DTD SVG 20010904//EN"
 "http://www.w3.org/TR/2001/REC-SVG-20010904/DTD/svg10.dtd">
<svg version="1.0" xmlns="http://www.w3.org/2000/svg"
 width="512.000000pt" height="512.000000pt" viewBox="0 0 512.000000 512.000000"
 preserveAspectRatio="xMidYMid meet">

<g transform="translate(0.000000,512.000000) scale(0.100000,-0.100000)"
fill="#000000" stroke="none">
<path d="M1070 3760 c-21 -5 -49 -24 -70 -48 -25 -28 -46 -42 -73 -46 -182
-33 -428 -167 -577 -316 -552 -552 -424 -1475 256 -1856 360 -201 809 -197
1164 11 192 113 371 301 453 478 l22 47 315 0 316 0 23 -47 c40 -83 127 -206
197 -279 250 -258 590 -384 950 -353 565 49 1007 487 1066 1055 17 169 -5 342
-67 516 -101 283 -333 536 -607 663 -75 34 -234 85 -268 85 -10 0 -28 14 -40
30 -45 63 -54 65 -390 68 -373 4 -399 2 -450 -44 l-37 -34 -699 0 c-685 0
-699 0 -711 20 -7 11 -27 27 -45 37 -30 16 -67 18 -363 20 -181 1 -346 -2
-365 -7z m2952 -270 c535 -51 924 -495 895 -1023 -11 -202 -71 -367 -194 -532
-279 -375 -796 -500 -1208 -292 -192 96 -326 230 -441 439 -42 77 -59 98 -99
123 l-48 30 -331 3 c-182 2 -350 1 -372 -3 -74 -11 -124 -54 -173 -147 -255
-483 -797 -676 -1269 -453 -269 128 -450 339 -538 630 -26 83 -28 103 -28 260
0 157 2 177 28 260 35 118 74 199 136 290 120 173 301 311 490 374 154 51 96
49 1620 50 892 1 1465 -3 1532 -9z"/>
<path d="M3762 3261 c-253 -63 -464 -265 -544 -521 -20 -65 -23 -95 -22 -220
0 -129 3 -154 27 -225 51 -155 168 -307 308 -400 82 -55 142 -81 244 -106 146
-35 330 -19 469 41 186 80 358 268 424 467 23 69 26 94 26 223 1 125 -2 155
-22 220 -81 260 -302 467 -559 524 -96 21 -257 20 -351 -3z m231 -265 c49 -21
79 -59 84 -109 15 -131 -140 -203 -231 -108 -61 64 -39 172 44 213 42 22 61
22 103 4z m-318 -370 c27 -18 55 -74 55 -113 0 -34 -31 -86 -63 -108 -89 -58
-207 4 -207 108 0 116 116 178 215 113z m706 -12 c124 -119 -49 -308 -180
-198 -41 34 -57 85 -42 134 30 102 147 136 222 64z m-363 -324 c84 -51 79
-185 -9 -232 -99 -53 -209 19 -196 129 5 46 42 97 82 113 35 15 89 10 123 -10z"/>
<path d="M1090 3130 c-226 -35 -424 -200 -491 -409 -29 -91 -36 -245 -15 -333
65 -276 306 -468 588 -468 116 0 177 14 278 63 150 73 266 213 316 382 24 81
24 239 0 320 -63 210 -224 372 -427 428 -71 20 -180 27 -249 17z m181 -120
c86 -17 174 -63 243 -130 201 -193 207 -499 13 -698 -209 -215 -565 -191 -742
48 -266 363 46 863 486 780z"/>
<path d="M1098 2708 l-3 -93 -97 -3 -98 -3 0 -84 0 -85 100 0 100 0 0 -95 0
-95 80 0 80 0 0 95 0 95 100 0 100 0 0 85 0 84 -97 3 -98 3 -3 93 -3 92 -79 0
-79 0 -3 -92z"/>
<path d="M2365 2760 c-29 -12 -202 -191 -210 -217 -6 -22 9 -62 29 -75 34 -23
63 -7 163 95 56 56 105 114 108 128 11 45 -45 88 -90 69z"/>
<path d="M2775 2760 c-11 -4 -64 -53 -117 -108 -103 -104 -113 -126 -82 -170
10 -15 25 -22 48 -22 28 0 46 14 134 104 95 96 108 116 102 156 -4 33 -50 55
-85 40z"/>
</g>
</svg>
